# xmcd
#
# Track frame offsets: 
#        150
#        20934
#        37218
#        61653
#        82428
#        104420
#        125000
#        144391
#        166350
#        184930
#        204906
#        222629
#        244125
#        263130
#        281167
#
# Disc length: 3995 seconds
#
# Revision: 0
# Processed by: cddbd v1.5.2PL0 Copyright (c) Steve Scherf et al.
# Submitted via: ExactAudioCopyFreeDBPlugin 1.0
#
DISCID=f30f990f
DTITLE=齊豫 - C'est La Vie
DYEAR=1999
DGENRE=Chanson
TTITLE0=C'est la Vie
TTITLE1=Forever
TTITLE2=At Seventeen
TTITLE3=Twist In My Sobriety
TTITLE4=Songs and Silhouettes
TTITLE5=Edge of a Dream
TTITLE6=Geordie
TTITLE7=Time
TTITLE8=And I Love You So
TTITLE9=Wishful Milenio
TTITLE10=Windflower
TTITLE11=Whispering Steppes
TTITLE12=Turning
TTITLE13=The Rose
TTITLE14=I Swear
EXTD=
EXTT0=
EXTT1=
EXTT2=
EXTT3=
EXTT4=
EXTT5=
EXTT6=
EXTT7=
EXTT8=
EXTT9=
EXTT10=
EXTT11=
EXTT12=
EXTT13=
EXTT14=
PLAYORDER=
